<svg xmlns="http://www.w3.org/2000/svg" viewBox="0 0 48 48">
  <path fill="#24292e" d="M24 4C12.954 4 4 12.954 4 24c0 8.887 5.801 16.411 13.82 19.016 1.012.186 1.38-.44 1.38-.976 0-.48-.018-1.743-.028-3.42-5.62 1.222-6.807-2.708-6.807-2.708-.918-2.334-2.242-2.956-2.242-2.956-1.832-1.254.139-1.229.139-1.229 2.027.143 3.093 2.083 3.093 2.083 1.8 3.086 4.725 2.195 5.875 1.678.184-1.305.705-2.195 1.281-2.7-4.487-.51-9.205-2.243-9.205-9.984 0-2.205.786-4.007 2.082-5.423-.208-.513-.902-2.57.198-5.357 0 0 1.699-.544 5.566 2.075 1.615-.449 3.348-.673 5.069-.682 1.721.009 3.454.233 5.069.682 3.867-2.619 5.566-2.075 5.566-2.075 1.1 2.787.406 4.844.198 5.357 1.296 1.416 2.082 3.218 2.082 5.423 0 7.76-4.726 9.468-9.229 9.97.726.626 1.372 1.862 1.372 3.752 0 2.708-.024 4.894-.024 5.558 0 .542.364 1.172 1.39.974C38.209 40.405 44 32.885 44 24 44 12.954 35.046 4 24 4z"/>
</svg> 